<?xml version="1.0" encoding="UTF-8"?>
<!DOCTYPE svg PUBLIC "-//W3C//DTD SVG 1.1//EN" "http://www.w3.org/Graphics/SVG/1.1/DTD/svg11.dtd">
<!-- Creator: CorelDRAW -->
<svg xmlns="http://www.w3.org/2000/svg" xml:space="preserve" width="184.494mm" height="238.736mm" version="1.1" style="shape-rendering:geometricPrecision; text-rendering:geometricPrecision; image-rendering:optimizeQuality; fill-rule:evenodd; clip-rule:evenodd"
viewBox="0 0 18902.02 24459.3"
 xmlns:xlink="http://www.w3.org/1999/xlink"
 xmlns:xodm="http://www.corel.com/coreldraw/odm/2003">
 <defs>
  <style type="text/css">
   <![CDATA[
    .fil0 {fill:black;fill-rule:nonzero}
    .fil2 {fill:#A3D3E3;fill-rule:nonzero}
    .fil1 {fill:#BF1601;fill-rule:nonzero}
    .fil5 {fill:white;fill-rule:nonzero}
    .fil4 {fill:#5B7882;fill-rule:nonzero;fill-opacity:0.450980}
    .fil3 {fill:#770A38;fill-rule:nonzero}
   ]]>
  </style>
 </defs>
 <g id="Layer_x0020_1">
  <metadata id="CorelCorpID_0Corel-Layer"/>
  <path class="fil0" d="M17919.48 9992.03c688.53,-767.14 1046.35,-1724.04 973.15,-2659.24 -89.45,-1108.7 -777.98,-2174.02 -1943.6,-3006.22l0 0c-146.39,-103.01 -295.48,-200.59 -447.27,-292.76 -138.25,-577.39 -433.72,-1095.15 -691.24,-1463.8 -403.9,-577.39 -918.95,-1081.59 -1409.59,-1390.61 -894.55,-558.41 -1886.68,-840.33 -2743.28,-1062.62 -479.8,-124.7 -881,-94.87 -1236.1,-73.19 -241.26,16.27 -449.99,29.81 -672.27,-2.72 -978.58,-140.96 -1989.69,84.03 -2927.61,656 -829.49,504.2 -1555.97,1263.21 -2046.61,2136.07 -666.85,1184.6 -956.9,2512.87 -1105.99,3789.63 -208.73,27.11 -447.27,27.11 -693.95,29.81 -723.77,5.42 -1626.45,10.84 -2266.19,718.35 -552.99,609.92 -582.81,1420.44 -601.79,1957.16 -70.48,2000.54 -140.96,4071.54 -89.45,6120.87 29.81,1192.73 184.33,2409.86 1081.59,3239.34 693.95,642.45 1596.64,807.81 2412.57,807.81 84.03,0 168.06,-2.72 252.1,-5.42 54.22,534.02 113.86,1068.04 181.62,1602.06 86.75,683.11 192.46,1344.53 558.41,1946.32 534.02,881 1555.97,1420.44 2605.03,1420.44 181.62,0 363.24,-16.27 544.86,-48.8 1241.52,-227.7 2263.48,-1208.99 2545.4,-2439.67 132.83,-588.24 89.45,-1171.04 51.5,-1686.09 -16.27,-219.57 -32.53,-436.43 -35.24,-639.74 262.95,-2.72 574.68,-5.42 910.81,-10.84 -216.86,1203.57 178.91,2485.76 1084.3,3269.17 550.28,474.38 1282.19,734.61 2041.19,734.61 103.01,0 206.01,-5.42 309.03,-13.55 826.78,-75.9 1547.84,-449.99 2027.64,-1049.06 528.6,-661.42 702.08,-1461.09 832.2,-2222.81 590.94,-3418.26 764.44,-6904.28 512.33,-10360.49l-13.54 0z"/>
  <path class="fil1" d="M16518.02 12488.62c-5.42,-471.68 -21.69,-943.34 -43.37,-1415.02 -544.86,273.79 -1179.18,490.65 -1935.48,661.42 -715.64,159.93 -1368.93,241.26 -1973.43,241.26 -561.13,0 -1078.88,-70.48 -1561.39,-208.73 -1512.6,-439.15 -2770.38,-1634.58 -3282.71,-3120.07 -398.48,-1154.78 -341.56,-2472.2 159.93,-3608 544.86,-1236.1 1892.1,-1596.64 2699.91,-1810.78 1246.94,-333.42 2553.53,-344.26 3776.08,-59.64 -241.26,-290.05 -512.33,-542.15 -761.72,-699.38 -710.22,-444.57 -1569.53,-685.82 -2317.69,-878.28 -241.26,-62.34 -468.96,-46.08 -756.3,-27.11 -287.34,18.97 -609.92,40.66 -992.14,-13.55 -1452.97,-211.44 -2797.49,908.1 -3431.81,2033.07 -32.53,59.64 -65.06,116.56 -94.87,178.91 -702.06,1347.24 -856.58,2946.58 -951.46,4472.74 -262.95,4215.21 -130.12,8479.23 398.48,12670.05 67.77,531.3 138.25,1000.26 349.68,1349.96 298.18,490.65 975.87,777.98 1577.66,666.85 631.61,-116.56 1195.44,-656 1339.11,-1284.9 84.03,-365.95 51.5,-788.83 16.27,-1236.1 -37.95,-512.33 -81.33,-1092.43 48.8,-1677.95 75.9,-336.13 368.66,-580.1 712.92,-593.66l24.39 0c10.84,0 18.97,0 29.81,0 612.63,2.72 3656.8,-35.24 5131.45,-157.23 0,0 -753.59,1433.99 -1981.55,1618.31 -260.23,759.01 -62.34,1680.67 498.77,2165.89 309.03,265.65 764.44,401.19 1217.13,357.82 406.62,-37.95 764.44,-214.15 978.58,-485.22 303.6,-382.21 420.16,-943.34 523.18,-1534.28 439.13,-2510.16 637.02,-5060.98 601.77,-7606.38zm-13065.81 -2689.07c21.69,-547.57 48.8,-1092.43 81.33,-1637.29 -189.75,10.84 -374.09,10.84 -552.99,13.55 -596.36,5.42 -973.15,21.69 -1152.07,219.57 -181.62,197.89 -197.89,674.97 -208.73,989.42 -5.42,168.06 -10.84,336.13 -18.97,504.2 -62.34,1821.62 -119.28,3692.05 -70.48,5524.51 21.69,859.31 111.14,1715.9 593.66,2163.18 360.53,333.42 905.39,417.46 1496.33,401.19 -214.16,-2718.89 -271.08,-5454.03 -168.08,-8178.34z"/>
  <path class="fil2" d="M17366.49 7793.61c-70.48,528.6 -393.06,1076.17 -891.84,1482.78 -534.02,439.15 -1255.08,748.17 -2271.61,975.87 -1138.51,257.52 -2022.22,273.79 -2778.52,54.22 -1046.35,-303.6 -1916.5,-1130.38 -2271.61,-2157.75 -276.5,-796.97 -233.12,-1710.48 113.86,-2499.31 35.24,-81.33 81.33,-162.64 154.51,-249.39 192.46,-216.86 582.81,-449.99 1545.13,-707.5 534.02,-143.67 1078.88,-211.44 1621.03,-211.44 1252.37,0 2480.34,371.37 3475.18,1081.59 1070.74,761.72 1282.19,1509.89 1312,1889.4 10.84,111.13 8.13,227.69 -8.13,341.55z"/>
  <path class="fil3" d="M3622.98 17977.89c-590.94,16.27 -1135.8,-67.77 -1496.33,-401.19 -485.22,-447.27 -571.97,-1303.87 -593.66,-2163.18 -48.8,-1832.46 8.13,-3702.89 70.48,-5524.51 547.57,-227.7 1214.41,-192.46 1848.73,-86.75 -103,2721.61 -46.07,5456.75 170.78,8175.63zm12895.04 -5489.27c-425.59,1569.53 -1534.28,2960.14 -3027.91,3605.3 -1957.16,848.47 -4453.76,300.9 -5806.43,-1344.53 -867.44,-1054.48 -1236.1,-2428.84 -1474.64,-3773.36 -417.46,-2377.33 -487.93,-4817.01 -208.73,-7213.3 -699.36,1347.23 -853.88,2946.57 -948.75,4472.73 -262.95,4215.21 -130.12,8479.23 398.48,12670.05 67.77,531.3 138.25,1000.26 349.68,1349.96 298.18,490.65 975.87,777.98 1577.66,666.85 631.61,-116.56 1195.44,-656 1339.11,-1284.9 84.03,-365.95 51.5,-788.83 16.27,-1236.1 -37.95,-512.33 -81.33,-1092.43 48.8,-1677.95 75.9,-336.13 368.66,-580.1 712.92,-593.66l24.39 0c10.84,0 18.97,0 29.81,0 612.63,2.72 3656.8,-35.24 5131.45,-157.23 0,0 -753.59,1433.99 -1981.55,1618.31 -260.23,759.01 -62.34,1680.67 498.77,2165.89 309.03,265.65 764.44,401.19 1217.13,357.82 406.62,-37.95 764.44,-214.15 978.58,-485.22 303.6,-382.21 420.16,-943.34 523.18,-1534.28 439.13,-2510.16 637.02,-5060.98 601.77,-7606.38z"/>
  <path class="fil4" d="M17366.49 7793.61c-70.48,528.6 -393.06,1076.17 -891.84,1482.78 -534.02,439.15 -1255.08,748.17 -2271.61,975.87 -1138.51,257.52 -2022.22,273.79 -2778.52,54.22 -1046.35,-303.6 -1916.5,-1130.38 -2271.61,-2157.75 -276.5,-796.97 -233.12,-1710.48 113.86,-2499.31 35.24,-81.33 81.33,-162.64 154.51,-249.39 200.59,300.9 352.4,1089.73 490.65,1322.85 292.76,485.22 710.22,902.68 1195.44,1198.15 1024.67,623.47 2285.16,759.01 3475.18,607.21 956.9,-122 1878.55,-412.05 2783.94,-734.62z"/>
  <path class="fil5" d="M12560.33 6484.31c-192.46,-70.48 -363.24,-241.26 -371.37,-447.27 -8.13,-298.18 306.32,-496.07 588.24,-590.94 796.97,-268.37 1691.51,-238.54 2469.49,81.33 222.28,92.17 460.83,243.97 482.52,482.52 24.39,265.65 -252.1,477.1 -520.46,504.2 -265.65,27.11 -528.6,-65.06 -791.54,-108.43 -609.93,-100.32 -1227.98,306.3 -1856.87,78.59z"/>
 </g>
</svg>
